<svg xmlns="http://www.w3.org/2000/svg" xmlns:xlink="http://www.w3.org/1999/xlink" width="134" height="38" viewBox="0 0 134 38">
  <defs>
    <clipPath id="clip-path">
      <rect id="矩形_873" data-name="矩形 873" width="40" height="38" transform="translate(177 -65)" fill="#fff" stroke="#707070" stroke-width="1"/>
    </clipPath>
    <clipPath id="clip-logo_totoro_">
      <rect width="134" height="38"/>
    </clipPath>
  </defs>
  <g id="logo_totoro_" data-name="logo+totoro—" clip-path="url(#clip-logo_totoro_)">
    <path id="路径_3508" data-name="路径 3508" d="M15.392-15.366a1.616,1.616,0,0,0-.78-.494,3.6,3.6,0,0,0-1.274-.26c-1.976-.052-3.978-.078-5.98-.052-1.2.026-2.236.026-3.458.026-.312,0-.572,0-.858.026a3.182,3.182,0,0,0-.78.156,2.545,2.545,0,0,0-.754.364.953.953,0,0,0-.416.52,2.23,2.23,0,0,0-.052.6,1.133,1.133,0,0,0,.286.754,1.636,1.636,0,0,0,.858.494,8.416,8.416,0,0,0,1.014.182c.468.078,3.016.1,3.432.1V.416A1.767,1.767,0,0,0,6.708.91a1.684,1.684,0,0,0,.182.546,1.429,1.429,0,0,0,.338.468,1.228,1.228,0,0,0,.676.234,1.9,1.9,0,0,0,1.274-.13,1.288,1.288,0,0,0,.494-.494l.078-.156c0-.026.026-.078.1-.156a1.869,1.869,0,0,0,.1-.494Q10,.416,10.036.182a2.379,2.379,0,0,0,.026-.416,1.842,1.842,0,0,1-.026-.39V-2.6c0-5.72.078-8.32.026-10.452.6,0,1.2,0,1.82-.026h1.326a7.059,7.059,0,0,0,.754-.026,5.486,5.486,0,0,0,.754-.156,1.888,1.888,0,0,0,.572-.234,1.257,1.257,0,0,0,.338-.546,4.658,4.658,0,0,0,.052-.624A1.053,1.053,0,0,0,15.392-15.366Zm2.366,5.85a5.9,5.9,0,0,0-3.094,4.03c-1.04,3.9,1.274,7.67,5.408,7.9a7.153,7.153,0,0,0,3.458-.572A4.772,4.772,0,0,0,25.558.078a6.981,6.981,0,0,0,.936-5.59A7.367,7.367,0,0,0,24.8-8.606,6.108,6.108,0,0,0,17.758-9.516Zm.78,3.484c1.092-1.014,3.406-1.144,4.264.26,1.2,1.924,0,5.1-2.236,4.966a3.269,3.269,0,0,1-2.34-.962A3.586,3.586,0,0,1,18.538-6.032Zm20.02-3.2c-.52-1.248-2.47-.884-3.484-.91h-.26a16.027,16.027,0,0,0-.208-3.432,1.563,1.563,0,0,0-2.5-.884c-.78.6-.754,2.47-.7,3.328.026.312.026.65.052.988a14.383,14.383,0,0,0-2.938.13,1.533,1.533,0,0,0-.676,2.444c.494.6,2.418.624,3.25.624h.39c0,1.872-.026,3.822-.052,5.278-.026.91-.1,2.574.468,3.458a2,2,0,0,0,2.418.364c.7-.26.65-2.08.65-3.146.052-1.508-.026-3.9-.1-5.98a12.475,12.475,0,0,0,3.12-.39A1.529,1.529,0,0,0,38.558-9.23Zm4.16-.286a5.9,5.9,0,0,0-3.094,4.03c-1.04,3.9,1.274,7.67,5.408,7.9a7.153,7.153,0,0,0,3.458-.572A4.772,4.772,0,0,0,50.518.078a6.981,6.981,0,0,0,.936-5.59,7.367,7.367,0,0,0-1.69-3.094A6.108,6.108,0,0,0,42.718-9.516Zm.78,3.484c1.092-1.014,3.406-1.144,4.264.26,1.2,1.924,0,5.1-2.236,4.966a3.269,3.269,0,0,1-2.34-.962A3.586,3.586,0,0,1,43.5-6.032ZM53.82-3.172c-.026,1.378.026,3.38.13,4.42.1.546.65,1.274,1.274,1.3,2.314.156,2.21-2.262,2.184-4.134V-5.33A4.112,4.112,0,0,1,61.126-7.1c.364.078.988.39,1.352.468.676.182,1.3.364,1.768-.494.65-1.222-.884-2.34-1.976-2.756a5.647,5.647,0,0,0-2.366-.208c-.156,0-2,.286-2.6,1.378-.026-1.092-.1-2.106-1.56-2.132a1.537,1.537,0,0,0-1.612.78,9.575,9.575,0,0,0-.312,3.094Zm14.9-6.344a5.9,5.9,0,0,0-3.094,4.03c-1.04,3.9,1.274,7.67,5.408,7.9a7.153,7.153,0,0,0,3.458-.572A4.772,4.772,0,0,0,76.518.078a6.981,6.981,0,0,0,.936-5.59,7.367,7.367,0,0,0-1.69-3.094A6.108,6.108,0,0,0,68.718-9.516Zm.78,3.484c1.092-1.014,3.406-1.144,4.264.26,1.2,1.924,0,5.1-2.236,4.966a3.269,3.269,0,0,1-2.34-.962A3.586,3.586,0,0,1,69.5-6.032Z" transform="translate(47 29)" fill="#333"/>
    <g id="蒙版组_33" data-name="蒙版组 33" transform="translate(-177 65)" clip-path="url(#clip-path)">
      <g id="组_1088" data-name="组 1088" transform="translate(179.996 -58.798)">
        <path id="联合_61" data-name="联合 61" d="M0,28.659c0-7.435,3.082-13.986,7.761-17.826A14.445,14.445,0,0,1,6.769,7.5C6.093,3.671,6.92.32,8.616.021s3.618,2.567,4.294,6.4c.089.5.152,1,.19,1.483a14.387,14.387,0,0,1,8.51-.039c.047-.477.118-.968.215-1.467.743-3.821,2.715-6.653,4.405-6.324s2.458,3.693,1.715,7.514a14.589,14.589,0,0,1-.978,3.155c4.74,3.827,7.869,10.421,7.869,17.915,0,11.828-7.8,21.417-17.419,21.417S0,40.487,0,28.659Z" transform="translate(0 0)" fill="#505562"/>
        <path id="联合_61_-_轮廓" data-name="联合 61 - 轮廓" d="M17.419,49.076c9.053,0,16.419-9.159,16.419-20.417a24.4,24.4,0,0,0-2.069-9.923,19.526,19.526,0,0,0-5.428-7.214l-.6-.484.315-.7A13.686,13.686,0,0,0,26.965,7.4c.747-3.842-.219-6.2-.925-6.342a.413.413,0,0,0-.08-.008c-.315,0-.917.358-1.576,1.365A12.016,12.016,0,0,0,22.807,6.59c-.089.459-.157.921-.2,1.373l-.119,1.214L21.32,8.823a13.387,13.387,0,0,0-7.921.036l-1.2.375-.1-1.25c-.036-.457-.1-.924-.178-1.389C11.268,2.87,9.607,1,8.862,1a.411.411,0,0,0-.072.006c-.708.125-1.715,2.47-1.035,6.325a13.52,13.52,0,0,0,.92,3.1l.309.7-.589.483C3.764,15.406,1,21.781,1,28.659,1,39.917,8.365,49.076,17.419,49.076m0,1C7.8,50.076,0,40.487,0,28.659c0-7.435,3.082-13.986,7.761-17.826A14.445,14.445,0,0,1,6.769,7.5C6.093,3.671,6.92.32,8.616.021s3.618,2.567,4.294,6.4c.089.5.152,1,.19,1.483a14.387,14.387,0,0,1,8.51-.039c.047-.477.118-.968.215-1.467.743-3.821,2.715-6.653,4.405-6.324s2.458,3.693,1.715,7.514a14.59,14.59,0,0,1-.978,3.155c4.74,3.827,7.869,10.421,7.869,17.915C34.837,40.487,27.039,50.076,17.419,50.076Z" transform="translate(0 0)" fill="#222"/>
        <ellipse id="椭圆_165" data-name="椭圆 165" cx="14.803" cy="10.875" rx="14.803" ry="10.875" transform="translate(2.616 21.589)" fill="#fff"/>
        <g id="组_1087" data-name="组 1087" transform="translate(7.751 12.526)">
          <ellipse id="椭圆_166" data-name="椭圆 166" cx="2.568" cy="2.719" rx="2.568" ry="2.719" transform="translate(0 0)" fill="#fff"/>
          <ellipse id="椭圆_167" data-name="椭圆 167" cx="2.568" cy="2.719" rx="2.568" ry="2.719" transform="translate(14.199 0)" fill="#fff"/>
          <ellipse id="椭圆_168" data-name="椭圆 168" cx="1.057" cy="1.208" rx="1.057" ry="1.208" transform="translate(1.51 1.51)" fill="#222"/>
          <ellipse id="椭圆_169" data-name="椭圆 169" cx="1.057" cy="1.208" rx="1.057" ry="1.208" transform="translate(15.709 1.51)" fill="#222"/>
        </g>
        <path id="路径_3501" data-name="路径 3501" d="M181.948,8808.709c0,.188-.008.553.3.467s1.214-1.187,2.118-1.021a3.271,3.271,0,0,1,1.637.836c.131.135.436.279.554.186a1.543,1.543,0,0,0-.056-1.482,2.271,2.271,0,0,0-2.135-1.037A2.433,2.433,0,0,0,181.948,8808.709Z" transform="translate(-173.144 -8777.875)" fill="#505562"/>
        <path id="路径_3502" data-name="路径 3502" d="M181.948,8808.709c0,.188-.008.553.3.467s1.214-1.187,2.118-1.021a3.271,3.271,0,0,1,1.637.836c.131.135.436.279.554.186a1.543,1.543,0,0,0-.056-1.482,2.271,2.271,0,0,0-2.135-1.037A2.433,2.433,0,0,0,181.948,8808.709Z" transform="translate(-167.189 -8782.146)" fill="#505562"/>
        <path id="路径_3503" data-name="路径 3503" d="M181.948,8808.709c0,.188-.008.553.3.467s1.214-1.187,2.118-1.021a3.271,3.271,0,0,1,1.637.836c.131.135.436.279.554.186a1.543,1.543,0,0,0-.056-1.482,2.271,2.271,0,0,0-2.135-1.037A2.433,2.433,0,0,0,181.948,8808.709Z" transform="translate(-160.683 -8777.875)" fill="#505562"/>
      </g>
    </g>
  </g>
</svg>
