<svg xmlns="http://www.w3.org/2000/svg" xmlns:xlink="http://www.w3.org/1999/xlink" width="128" height="128" viewBox="0 0 128 128">
  <defs>
    <linearGradient id="linear-gradient" x1="0.065" y1="0.096" x2="0.903" y2="0.721" gradientUnits="objectBoundingBox">
      <stop offset="0" stop-color="#de33f0"/>
      <stop offset="0.498" stop-color="#cd2eec"/>
      <stop offset="1" stop-color="#af26e4"/>
    </linearGradient>
    <clipPath id="clip-_128x128_1">
      <rect width="128" height="128"/>
    </clipPath>
  </defs>
  <g id="_128x128_1" data-name="128x128 – 1" clip-path="url(#clip-_128x128_1)">
    <path id="路径_53" data-name="路径 53" d="M1515.776-4155.667a13.467,13.467,0,0,1-5.28-.98c-.7-.254-1.391-.547-2.073-.869-4.8-2.263-9.484-4.724-14.037-7.427q-2.957-1.74-5.819-3.631a107.138,107.138,0,0,1-17.338-13.86,55.971,55.971,0,0,1-10.438-13.875,31.759,31.759,0,0,1-3.79-14.639q0-7.789,0-15.579,0-11.748.006-23.5,0-2.76,0-5.521a9.619,9.619,0,0,1,.041-1.232,12.951,12.951,0,0,1,8.536-11.064,131.226,131.226,0,0,1,19.454-5.813,111.63,111.63,0,0,1,16.55-2.625l.663-.047.661-.067a119.267,119.267,0,0,1,12.862-.6,119.263,119.263,0,0,1,12.862.6l.661.067.663.047a111.634,111.634,0,0,1,16.55,2.625,131.22,131.22,0,0,1,19.454,5.813,12.951,12.951,0,0,1,8.536,11.064,9.641,9.641,0,0,1,.041,1.232q0,2.852,0,5.7.008,11.721.006,23.441,0,7.726,0,15.451a31.757,31.757,0,0,1-3.791,14.639,55.959,55.959,0,0,1-10.438,13.875,107.071,107.071,0,0,1-17.338,13.859q-2.862,1.892-5.821,3.633c-4.553,2.7-9.239,5.163-14.035,7.426-.682.322-1.373.615-2.073.869a13.456,13.456,0,0,1-5.232.98Zm-4.158-108.417c-1.522.032-3.041.086-4.56.175q-1.661.113-3.319.3c-1.428.159-2.858.314-4.286.487l-.2.032c-1.639.259-3.282.492-4.926.721-.235.043-.47.086-.7.132-4.229.818-8.431,1.821-12.59,2.941-3.437.926-6.8,2.143-10.192,3.218a1.018,1.018,0,0,0-.738.627q.006,21.624-.042,43.248a22.829,22.829,0,0,0,3.941,12.645,55.837,55.837,0,0,0,10.777,11.95,112.45,112.45,0,0,0,14.513,10.514,141.123,141.123,0,0,0,15.251,8.152,2.915,2.915,0,0,0,1.238.295,2.914,2.914,0,0,0,1.237-.295,141.079,141.079,0,0,0,15.251-8.152,112.424,112.424,0,0,0,14.513-10.514,55.835,55.835,0,0,0,10.777-11.95,22.827,22.827,0,0,0,3.94-12.645q-.077-21.624-.042-43.248a1.018,1.018,0,0,0-.739-.627c-3.4-1.076-6.755-2.292-10.192-3.218-4.16-1.12-8.361-2.123-12.59-2.941-.234-.045-.469-.089-.7-.132-1.644-.229-3.287-.461-4.926-.721l-.2-.032c-1.428-.173-2.858-.328-4.286-.487q-1.658-.185-3.319-.3c-1.518-.088-3.038-.143-4.559-.175-1.385-.028-2.772-.05-4.158-.058C1514.39-4264.135,1513-4264.113,1511.619-4264.084Zm-16.945,67.8q-1-.8-1.964-1.635a40.981,40.981,0,0,1-7.906-8.766,17.2,17.2,0,0,1-2.829-7.827c-.005-.06-.008-.121-.008-.181l-.029-17.122c0-4.533.006-5.8.006-10.333a1.955,1.955,0,0,1,1.383-1.868c.712-.218,1.426-.426,2.145-.62,3.588-.966,5.947-1.83,9.6-2.536.2-.039.405-.076.607-.114l1.151-.161a1.982,1.982,0,0,1,1.676.553l16.548,15.673a.778.778,0,0,0,1.1,0h0l16.511-15.636a1.975,1.975,0,0,1,1.669-.554l.9.125.608.113c3.649.706,6.008,1.571,9.6,2.537.717.193,1.431.4,2.141.619a1.96,1.96,0,0,1,1.392,1.873c-.012,9.816,0,16.365.034,26.182v.111a16.783,16.783,0,0,1-2.891,9.166,40.937,40.937,0,0,1-7.906,8.766q-.748.647-1.511,1.271a1.974,1.974,0,0,1-3.227-1.51v-27.5a.773.773,0,0,0-.775-.77.774.774,0,0,0-.548.226l-15.742,15.627a.779.779,0,0,1-1.1,0h0l-16.088-15.971a.78.78,0,0,0-1.1,0,.764.764,0,0,0-.227.544v28.2a1.968,1.968,0,0,1-1.982,1.962A1.947,1.947,0,0,1,1494.674-4196.285Z" transform="translate(-1451.776 4280.334)" stroke="rgba(0,0,0,0)" stroke-width="1" fill="url(#linear-gradient)"/>
  </g>
</svg>
