<svg xmlns="http://www.w3.org/2000/svg" xmlns:xlink="http://www.w3.org/1999/xlink" width="139" height="80" viewBox="0 0 139 80"><defs><style>.a,.e{fill:#fff;}.b{fill:none;}.c{clip-path:url(#a);}.d,.g{fill:#919da6;}.d,.e,.f{fill-rule:evenodd;}.f{fill:rgba(145,157,166,0.54);}</style><clipPath id="a"><rect class="a" width="79.489" height="66.016"/></clipPath></defs><g transform="translate(-712 -261)"><rect class="b" width="139" height="80" transform="translate(712 261)"/><g transform="translate(587.044 4)"><g class="c" transform="translate(148 264.492)"><path class="d" d="M46.461,14.917c-.744-.5.226-1.277.345-1.982a14.038,14.038,0,0,0-.086-3.447c-.2-1.437-.488-3.134-.776-4.74-.319-1.773-.8-4.065-2.586-3.877-2.2,1.757-3.436,5.253-4.308,8.617a15.571,15.571,0,0,0-.689,3.619c0,.9.674,1.878.086,2.671-1.654-1.168-.955-3.806-.345-5.946.321-1.126.56-2.354.948-3.447.972-2.739,2.185-5.216,4.308-6.377,2.976-.214,3.231,3.307,3.7,6.2.178,1.084.347,2.246.518,3.361a13.453,13.453,0,0,1,.344,3.533C47.8,13.881,47.152,14.931,46.461,14.917Z"/><path class="d" d="M66.969,18.8c.043-.962,1.1-.906,1.465-1.551.054-.548.391-.815.6-1.206a32.111,32.111,0,0,0-1.12-11.375c-.208-.56-.855-1.589-1.465-1.637-.535-.042-1.32.714-1.638,1.207A22.9,22.9,0,0,0,63.6,7.421c-.4,1.039-1,2.168-1.292,3.1a17.281,17.281,0,0,0-.689,2.93c-.114,1.036.3,1.524.258,2.241-1.021.443-1.2-.811-1.206-1.551a14.9,14.9,0,0,1,1.465-5c1.065-2.511,1.266-5.354,3.1-6.721a1.844,1.844,0,0,1,2.412.086c1.132,1.011,1.656,3.287,1.982,5.6a35.432,35.432,0,0,1,.6,6.894C70.09,17.124,69.113,19.194,66.969,18.8Z"/><path class="d" d="M58.439,17.761c-.8.488-1.368-.388-2.068-.689a15.226,15.226,0,0,0-6.98-.862c-.466.051-.859.422-1.293.086.121-.946,2.154-.884,2.844-.948a13.7,13.7,0,0,1,4.739.69C56.874,16.415,58.406,16.7,58.439,17.761Z"/><path class="d" d="M45.686,15.52c.642.166,1.309-.1,1.724.172C47.288,16.572,45.2,16.779,45.686,15.52Z"/><path class="d" d="M61.627,16.816c.085.861-1.1.453-1.293,1.034a2.155,2.155,0,0,1-.861-.086.662.662,0,0,1,.085-.776c.42-.075.572.118.862.172.082-.372-.971-.349-.776-1.12C60.4,15.6,60.987,16.58,61.627,16.816Z"/><path class="d" d="M38.964,16.637c-.121.793.03,1.158-.6,1.637.39-.069,1.245-.256,1.379.172-.292.784-1.238.887-1.81,1.293a10.559,10.559,0,0,0-3.188,3.792c-.006.351.281.408.172.862-.19.228-.37.138-.689.086A2.527,2.527,0,0,0,33.8,26.03a1.055,1.055,0,0,0-.948,1.293,28.268,28.268,0,0,0-1.9,3.361c.016.33-.07.031-.258.086-.065.266.3.1.172.431-.172.144-.11-.008-.345,0-2.1,3.647-4.372,7.941-3.619,13.873.159.332.6.9.172,1.293-1.524-.072-1.265-2.108-1.206-3.533a18.666,18.666,0,0,1,1.551-7.324c.666-1.4,1.136-2.867,1.81-4.136,1.038-1.957,2.865-3.463,3.275-5.6-.656-.808-2.487-.443-2.93-1.465,1.215-.175,2.211.6,3.274.862,1.36-1.463.02-2.191-1.378-3.016-.827-.487-1.912-.691-2.154-1.293,1.8.1,3.145,1.391,4.567,2.155a17.121,17.121,0,0,1,4.05-4.481c-.037-.336-.51-.237-.431-.689.008-.451.577-.342.862-.517-.144-.39-1.061.189-1.293-.258,0-.2-.148-.254-.086-.517a2.241,2.241,0,0,1,1.982.082Z"/><path class="d" d="M68.348,19.915c-.069.417-.515.423-.259.948-.853.533-1.347-.618-1.637-1.206a1.413,1.413,0,0,1,1.9.258Z"/><path class="d" d="M40.687,20.428c2.327-.431,4.2.343,4.567,2.154a5.426,5.426,0,0,1,.776.6,7.2,7.2,0,0,1-.086,3.7c-.515.453-1.31,1.018-1.379,1.637a5.528,5.528,0,0,1-3.36.776,6.67,6.67,0,0,1-2.154-.862C35.7,26.634,37.05,21.142,40.687,20.428Zm-1.724,1.81a3.677,3.677,0,0,0,2.93,6.2,3.783,3.783,0,0,0,3.188-2.068c.957-2.2-.478-4.229-2.068-5.256-1.695-.1-3.108.127-4.05,1.128Z"/><path class="d" d="M66.969,20.863a15.378,15.378,0,0,1,3.619,7.583c1.4-.241,3.057-.821,4.567-1.034.425-.06,1.22-.227,1.551.172-.312.584-.961.221-1.465.258a25.711,25.711,0,0,0-4.48,1.034,3.1,3.1,0,0,0,.431,1.465c1.251.1,3.023-.59,3.533.259-.762.3-2.246-.058-3.275.172a63.369,63.369,0,0,1,2.327,10.772,10.451,10.451,0,0,0,.086,1.809,1.861,1.861,0,0,1,.172,1.121c-.119,1.3.155,2.769-.258,3.7A.89.89,0,0,1,72.828,48a45.481,45.481,0,0,0-2.241-16.889c-.2-.236-.552.168-.775-.086-.123-.44-.045-.572-.172-1.034.279.007.06.514.431.431.306-.142-.148-.761-.172-1.12-.337-.027-.415.489-.776.172-.265-.4.257-.63.517-.776a12.611,12.611,0,0,0-1.724-5c-.6-.923-1.679-1.365-1.9-2.671a1.8,1.8,0,0,1,.953-.166Z"/><path class="e" d="M43.014,21.122c1.591,1.027,3.025,3.052,2.068,5.256a3.783,3.783,0,0,1-3.188,2.068,3.677,3.677,0,0,1-2.93-6.2C39.9,21.241,41.314,21.009,43.014,21.122Zm-2.326,5.084A1.979,1.979,0,0,0,43.1,24.827c.179-1.59-2.088-2.342-3.188-1.206a1.993,1.993,0,0,0,.776,2.585Z"/><path class="d" d="M64.643,32.152a19.29,19.29,0,0,1-5-.948c-.029-.459-.141-.836-.69-.776.488-.414-.445-.633-.517-1.034a1.321,1.321,0,0,0-.172-1.293c-.05-.28.059-.4.086-.6a.857.857,0,0,0-.258-.517c.128-2.548,3.219-4.524,5.687-3.964.122.027.207.212.345.258,1.355.45,1.656.467,2.326,1.81a6.115,6.115,0,0,1,.344,4.481c-.092.322.214.245.172.517a4.7,4.7,0,0,1-2.323,2.066Zm-5.256-2.844c.981,2.067,5.154,2.352,6.463.259.861-1.376.183-3.972-.776-4.912-1.723-1.689-5.166-.469-5.946,1.379-.193.456-.061.968-.345,1.379C59.418,27.976,59.078,28.657,59.387,29.308Zm4.825,2.413c.758.113,2.269-.648,1.982-1.293C65.667,30.989,64.662,31.081,64.212,31.721Z"/><path class="e" d="M58.783,27.412c.284-.41.152-.923.345-1.379.78-1.847,4.222-3.068,5.946-1.379.959.94,1.636,3.536.776,4.912-1.309,2.094-5.482,1.808-6.463-.259C59.077,28.657,59.417,27.976,58.783,27.412Zm3.188-1.293c-.82.68-.748,2.561.431,2.844.808.194.88-.37,1.724,0a1.794,1.794,0,1,0-2.155-2.844Z"/><path class="d" d="M53.785,25.516c-.624.833-3.577.843-3.619-.344C50.122,23.882,53.7,23.925,53.785,25.516Z"/><path class="d" d="M64.126,28.963c-.844-.37-.916.194-1.724,0-1.179-.283-1.25-2.164-.431-2.844a1.794,1.794,0,1,1,2.155,2.844Z"/><path class="d" d="M18.2,38.7c1.514,1.157,1.924,3.32,2.671,5.429.241.68.732,1.223,1.034,1.9,2.019,4.5,1.777,11.864-1.551,14.563.3.364.987.335.948,1.034-.149.373-.892.2-1.12.259-.185.173.176.705-.172.862-.813.094-.632-.8-1.293-.862-.144.157.332.561.086.862-.659.056-.829-.378-1.206-.6a28.94,28.94,0,0,1-8.876.689c-.331.071.007.811-.344.862-.686.082-.445-.762-.776-1.034-.5.045-.376,1.174-.948.861-.652-.294.015-1.218.086-1.81.665-.215,1.268.232,1.9.345a20.119,20.119,0,0,0,11.2-1.81c2.914-2.556,3.1-8.82,1.638-13.012-.432-1.236-1.218-2.276-1.638-3.447-.588-1.642-.676-3.321-1.809-4.222a1.74,1.74,0,0,0-.431-.948,19.115,19.115,0,0,0-2.5-7.238c-.16-.285-.742-1.278-1.206-1.293-.761-.024-1.226,1.406-1.465,2.154a17.067,17.067,0,0,0-.517,5.17c.022.265.187.388.259.6-.169.349-.235.8-.431,1.121a8.421,8.421,0,0,1-1.379,0c-1.2.108-2.052,1.038-3.1.948-.267-.31.094-.544.086-.862A12.4,12.4,0,0,0,4.93,35.946c-1.082-1.062-2.766-3.09-4.308-1.982a25.833,25.833,0,0,0,1.723,6.98,8.583,8.583,0,0,1,.6,1.551,5.675,5.675,0,0,1-.172.861c-.053.727.176,1.468.086,2.241-.25,2.155-1.31,4.093-1.207,6.29A17.135,17.135,0,0,0,3.117,58.35c.73,1.538,2.054,2.338,3.361,3.447-3.949-.316-5.134-4.954-5.6-9.134-.3-2.678,1-4.973,1.207-7.325a15,15,0,0,1,0-2.585c-.369-2.189-2.267-5.24-2.068-7.928.073-.995.5-2.369,1.637-2.326A6.051,6.051,0,0,1,3.9,33.878c1.159,1.005,2.152,2.509,3.275,3.447A7.468,7.468,0,0,0,8.2,38.962a9.95,9.95,0,0,1,3.1-.6c-.25-2.834-.034-7.31,1.81-8.962.74-.663,1.863.391,2.241.948.457.673.825,1.765,1.293,2.585A11.342,11.342,0,0,1,18.2,38.7Z"/><path class="e" d="M66.19,30.428c.287.645-1.224,1.406-1.982,1.293C64.664,31.086,65.667,30.993,66.19,30.428Z"/><path class="d" d="M70.415,33.7c.254.033.169.406.345.517C70.554,34.475,70.471,33.882,70.415,33.7Z"/><path class="d" d="M48.529,34.392c-.034.389-.407-.1-.517.172.119.225.731-.042.862.172.16-.166.158-.069.086-.345.27.018.633-.058.776.086-.037.192-.425.035-.6.086a4.459,4.459,0,0,0,2.5.517c-.266-.453-1.132-.3-1.637-.517,1.541-.2,3.453,1.184,5.429,1.378a5.53,5.53,0,0,0,2.154.862c.041.272-.4.064-.431.258.971.868,1.961,1.716,2.93,2.585.26.087.153-.192.173-.345a3.121,3.121,0,0,1,.517,1.293c-.065-.214-.44.057-.69,0-.519-.119-1.7-1.63-2.5-2.326a10.476,10.476,0,0,0-3.016-1.724,21.012,21.012,0,0,0-2.413-.775c-.7-.147-1.425-.046-2.068-.172-.482-.1-.864-.372-1.379-.431-5.355-.615-10.458.57-13.873,3.188-.262.428-.37,1.008-.862,1.206-.271.041-.228-.232-.431-.259.169-1.152,1.09-1.553,1.724-2.241,1.295-.407,2.512-1.3,3.964-1.81C41.882,34.311,45.792,34.505,48.529,34.392Z"/><path class="d" d="M32.845,39.475c-.2,1.963-.833,4.633-1.809,5.859-.341.428-1.086,1.087-1.551.345a8.945,8.945,0,0,0,1.81-2.93,14.874,14.874,0,0,1,.689-3.275C32.258,39.461,32.618,39.27,32.845,39.475Z"/><path class="d" d="M62.144,39.82c.481.591-.291,1.4-.431,2.24a37.006,37.006,0,0,1-.861,4.309,7.1,7.1,0,0,0,1.637,3.447c-1.122.96-2.509-1.709-2.585-3.016a15.476,15.476,0,0,1,1.465-6.118,1.749,1.749,0,0,1,.775-.862Z"/><path class="d" d="M16.043,40.769a3.1,3.1,0,0,1,1.551,0,3.383,3.383,0,0,1,1.81,2.843c-.033,1.775-2.612,3.053-4.395,2.154a3.391,3.391,0,0,1-1.293-1.81,2.787,2.787,0,0,1,2.327-3.187Zm2.585,3.016c.58-3.055-4.711-3.2-4.222.259.771,1.939,3.887,1.5,4.221-.26Z"/><path class="e" d="M14.4,44.043c-.489-3.463,4.8-3.314,4.222-.259C18.293,45.546,15.177,45.982,14.4,44.043Zm3.275-.949a.766.766,0,0,0-1.034-.6c-2.084.546,1.43,2.874,1.033.6Z"/><path class="d" d="M67.487,60.5c.306-.5.864-.341,1.292-.431a11.885,11.885,0,0,0,7.411-5.256c-.013-.188-.217-.185-.432-.172.373-.6,1.3-1.255,1.724-1.982A8.344,8.344,0,0,0,78,50.678a13.008,13.008,0,0,0,.517-4.481c-.216-1.189-1.162-2.173-1.638-3.1-.76-.533-1.869-.716-2.671-1.206-.041-.271.123-.337.172-.517,3.269.251,4.848,2.622,5.084,5.86.3,4.07-1.946,8.369-4.825,10.858a11.479,11.479,0,0,1-5.515,2.757,1.688,1.688,0,0,1-1.636-.348Z"/><path class="d" d="M40.17,45.421a4.907,4.907,0,0,0-3.447,0c-.718.313-1.26,1.324-2.24.689-.142-.432-.275-.874-.431-1.293.563-1.065,1.219-2.657,2.5-3.188C39.035,40.6,41.981,43.3,40.17,45.421Zm-.517-2.413c-1.532-2.468-5.695.782-4.653,2.5a6.315,6.315,0,0,1,4.825-1.034,1.942,1.942,0,0,0-.172-1.469Z"/><path class="e" d="M49.132,44.647c-.333-.069-.4-.407-.689-.517-.244-.014-.2.259-.431.259-.276.075-.178-.224-.344-.259-1.269-.1-1.909-.263-2.758.172-.479.246-.837,1.073-1.81.689-.1-.813.928-1.178,1.12-1.982.921-.175,1.607-1.044,2.585-.948.239.024.376.223.6.259.4.063.743-.072,1.12.258a2.378,2.378,0,0,1,.607,2.069Z"/><path class="d" d="M6.306,42.234c1.886-.433,3.53.413,3.792,1.9.565,3.2-3.54,4.691-5.515,2.5C3.167,45.059,4.59,42.626,6.306,42.234Zm2.413,4.308a2.377,2.377,0,0,0-.6-3.7c-2.3-.232-3.476.661-3.361,2.844.619,1.119,2.755,1.87,3.96.861Z"/><path class="e" d="M39.825,44.474A6.315,6.315,0,0,0,35,45.508c-1.042-1.717,3.121-4.967,4.653-2.5a1.942,1.942,0,0,1,.172,1.466Z"/><path class="d" d="M16.646,42.492a.766.766,0,0,1,1.034.6C18.076,45.369,14.562,43.04,16.646,42.492Z"/><path class="e" d="M4.755,45.68c-.115-2.183,1.06-3.075,3.361-2.844a2.377,2.377,0,0,1,.6,3.7C7.513,47.55,5.377,46.8,4.755,45.68Zm3.016-.517c.232-1.149-1.653-1.8-1.638-.086.308.725,1.47.912,1.638.084Z"/><path class="d" d="M59.386,45.939c-.1-.014-.153.019-.172.086a24.084,24.084,0,0,1-1.81-1.637c-.182.078.163.346.086.6-.35.251-.414.367-.862.172-.056-.373.149-.483.259-.689-.26-.235-.514.059-.776.086-.04-.27.217-.243.345-.344-1.338-1.017-2.546.6-3.275,1.293.4.734,2.24-.446,3.016.344.2-.063.025-.491.345-.431.122.375-.294.4-.086.6.749.314,1.107,1.018,1.723,1.465.466.093.513-.234.948-.172a.816.816,0,0,1-.776,1.121c-1.3.037-1.7-2.149-3.705-2.155-1.216,0-1.8.791-2.413-.6.817-1.211,2.277-2.757,4.136-2.586,1.39.129,1.8,1.1,2.844,1.724C59.262,45.222,59.593,45.536,59.386,45.939Z"/><path class="d" d="M6.133,45.077c-.015-1.709,1.87-1.063,1.638.086C7.6,45.99,6.441,45.8,6.133,45.077Z"/><path class="d" d="M76.964,45.249c-.115.344-.514.406-.6.776-.718-.209-1.137.156-1.551-.258C74.972,44.724,76.131,45.172,76.964,45.249Z"/><path class="d" d="M29.055,46.455c.136.64.457,1.094.6,1.723C28.832,48.975,27.765,46.415,29.055,46.455Z"/><path class="d" d="M27.417,46.628c.943.126.059,1.144.517,1.81C26.679,48.892,26.98,47.171,27.417,46.628Z"/><path class="d" d="M64.212,48.868a.543.543,0,0,1,0,.689c.021.093.171.058.172.172a5.029,5.029,0,0,0,3.274-.517c1.193.967-1.038,1.875-2.068,1.465-.191.384.35,1,.172,1.379h-.6c-.208-.36-.573-1.273-.086-1.551-.033-.451-.679-.667-1.121-.431.26.142.379.426.6.6a1.692,1.692,0,0,0-.172,1.12.688.688,0,0,1-1.034,0c-.019-.581.284-.946.086-1.465.164-.037.216-.185.431-.172-.07-.275-.443-.246-.6-.431.266-.523-.223-.356-.258-.775A3.844,3.844,0,0,0,64.212,48.868Z"/><path class="d" d="M28.274,48.95c.649.649.348,1.425.431,2.154a12.007,12.007,0,0,0,2.5,5.429c1.307,1.739,3.206,2.817,5.084,4.05-.345.629-1.353.059-1.81-.172-2.282-1.158-3.556-3.148-5-5.429-1.064-1.682-2.073-3.472-1.724-5.859C27.942,49.077,28.007,48.913,28.274,48.95Z"/><path class="d" d="M62.574,49.73a1.346,1.346,0,0,1,.69.517,10.835,10.835,0,0,0-.69,1.466.662.662,0,0,1-.689-.345,4.029,4.029,0,0,1,.689-1.638Z"/><path class="d" d="M66.194,59.3c.238.049.483.091.431.431a.47.47,0,0,1-.431-.431Z"/><path class="d" d="M62.832,62.138c-.261,0-.083.434-.344.431-.613-.522-1.477.7-1.982,0,.414-.62,1.234-.624,1.809-1.034.363-.258.713-.689,1.12-1.034a7.7,7.7,0,0,0,1.121-.948,13.574,13.574,0,0,0,1.034-2.671c.135-.341.447-.63.517-.948.2-.892-.029-2.084.086-3.1.978-.092.856,1.753.776,2.671a10.232,10.232,0,0,1-.862,2.5c-.091.435.2.493.172.861-.319-.053-.158.309-.258.431-.147.177-.449.11-.6.258s-.165.573-.344.776c-.258.292-.764.385-.948.6-.093.11-.128.423-.259.6-.257.356-.5.361-.517.948a4.444,4.444,0,0,0,3.36-2.585c1.752.873-1.225,2.655-2.154,3.1.319.629,1.269.626,1.293,1.551-.8.423-1.6-.406-1.637-1.293-.57.234-1.288.32-1.81.6.17.56.674,1.206.431,1.9-.974.149-1.228-1.112-1.809-1.637a20.681,20.681,0,0,1-2.069.086c-.175.425.353,1.39-.086,1.81-.96,0-1.1-1.143-1.12-1.81-5.5-.494-10.6.2-15.77-.862-.824.411-1.017,1.454-2.068,1.638-.641-.633.369-1.333.517-1.982a11.939,11.939,0,0,0-1.982-.6c-.317.24.363.2.258.517-.518.309-1,1.421-1.637,1.292-1.034-.209.2-1.6.689-1.982-.176-.225-.514-.29-.775-.431-.148.11-.173.344-.344.431-.855.015-1,1.169-1.982.775.121-1.229,1.274-1.426,1.9-2.154,2.417.754,4.894,1.891,7.842,2.241a65.722,65.722,0,0,0,8.1.086c3.628-.033,8,1.059,10.858-.6C63.231,62.371,62.995,62.292,62.832,62.138Z"/><path class="d" d="M39.912,23.62c1.1-1.135,3.367-.384,3.188,1.206a1.75,1.75,0,1,1-3.188-1.206Z"/><path class="d" d="M49.908,46.024c-1.792,1.037-1.957-1.128-3.361-1.293-1.581-.185-2.078,1.559-3.533,1.12-1.4-.423-.133-2.658.776-3.447,1.179-1.023,3.352-1.724,4.912-.6a3.655,3.655,0,0,1,1.206,4.22Zm-1.379-3.447c-.377-.33-.72-.195-1.12-.258-.227-.036-.365-.235-.6-.259-.978-.1-1.665.773-2.585.948-.192.8-1.218,1.169-1.12,1.982.972.383,1.331-.443,1.81-.689.849-.435,1.489-.27,2.758-.172.166.035.068.334.344.259.23,0,.188-.272.431-.259.292.109.356.448.689.517a2.378,2.378,0,0,0-.607-2.069Z"/></g><g transform="translate(138.015 300.643)"><path class="f" d="M87.013,24.1s2.309-2.317,4.028-1.678,1.8,1.938,1.793,3.111.465,2.042-.332,2.829-3.378,1.233-3.378,1.233,2.456,2.829.959,4.144-1.807.505-2.965.735-3.135.126-3.408-1.047A18.987,18.987,0,0,1,84,28.9s-2.951,2.822-5.562,1.834c-2.235-1-.974-2.421-1.04-3.1s-.62-2.168.125-2.9,3.179-.364,3.777-.356-.376-2.25-.28-3.1.73-3.111,2.537-3.119,1.534.9,2.1,1.3,2.08-.408,2.324,1.025S87.013,24.1,87.013,24.1Zm-1.04,1.47c-.111-1.53-.8-3.171-2.39-2.465s-.015,2.918-.015,2.918a2.818,2.818,0,0,0-2.088.163c-1.151.535-1.556,1.322-.944,2.265s3.637-.817,3.637-.817.575,3.067.671,3.267a1.033,1.033,0,0,0,1.851.223c1.077-1.136-.937-3.319-.937-3.319a4.725,4.725,0,0,0,1.947.215c.8-.163,1.623-.193,1.291-1.968S85.973,25.567,85.973,25.567Z" transform="translate(24 -15.312)"/><path class="f" d="M68.823,35.391s2.088.691,2.235,1.931a1.849,1.849,0,0,1-1.313,2.035c-.7.349-1.084.906-1.793.661s-1.77-1.671-1.77-1.671-.944,2.354-2.191,1.842-.856-.943-1.342-1.574-1.033-1.864-.413-2.384a12.861,12.861,0,0,1,2.8-1.2s-2.589-.936-2.8-2.814c-.089-1.656,1.151-1.329,1.534-1.574s1.114-1.04,1.778-.809,1.188,1.819,1.365,2.183,1.232-.913,1.77-1.114,2.088-.5,2.641.587-.074,1.2-.14,1.671.878,1.136.1,1.723A4.821,4.821,0,0,1,68.823,35.391Zm-1.195-.186c.885-.535,1.66-1.455.745-2.205s-1.756.884-1.756.884a1.945,1.945,0,0,0-.738-1.218c-.671-.535-1.269-.542-1.645.119s1.6,1.953,1.6,1.953-1.66,1.285-1.756,1.4a.7.7,0,0,0,.428,1.188c1.011.312,1.7-1.582,1.7-1.582a3.3,3.3,0,0,0,.465,1.247c.339.438.612.921,1.571.178S67.628,35.205,67.628,35.205Z" transform="translate(26 -6.312)"/><path class="d" d="M2.886,25.031s-.436-1.274.107-1.8a1.116,1.116,0,0,1,1.465-.108c.426.213.833.193.976.632a3.79,3.79,0,0,1-.153,1.478s1.478-.406,1.692.39-.14.763-.264,1.235-.517,1.189-1,1.081a7.727,7.727,0,0,1-1.608-.924s.5,1.605-.325,2.4c-.765.652-1.064-.072-1.325-.167s-.908-.161-1.041-.57.439-1.248.547-1.468-.892-.265-1.188-.452-1.012-.829-.687-1.5.605-.406.856-.547.225-.845.794-.678A2.925,2.925,0,0,1,2.886,25.031Zm.351.652c-.579-.233-1.308-.272-1.334.446s1.071.531,1.071.531a1.16,1.16,0,0,0-.312.806c-.01.524.205.816.664.76s.351-1.5.351-1.5,1.23.337,1.321.337.638-.039.413-.645-1.386-.249-1.386-.249a2,2,0,0,0,.43-.685c.085-.324.221-.639-.491-.832S3.237,25.683,3.237,25.683Z" transform="translate(-4.087 -6.205)"/></g></g><path class="g" d="M4.013-18.928A3.021,3.021,0,0,0,1.659-18a3.265,3.265,0,0,0-.827,2.355H1.939A2.535,2.535,0,0,1,2.4-17.26a1.791,1.791,0,0,1,1.556-.687,1.813,1.813,0,0,1,1.373.491,1.769,1.769,0,0,1,.477,1.3,1.738,1.738,0,0,1-.42,1.107,6.213,6.213,0,0,1-.477.5,5.848,5.848,0,0,0-1.416,1.626A2.787,2.787,0,0,0,3.243-11.7v.322H4.364V-11.7a1.957,1.957,0,0,1,.266-1.023,2.886,2.886,0,0,1,.659-.771,13.868,13.868,0,0,0,1.135-1.079,2.643,2.643,0,0,0,.533-1.64,2.554,2.554,0,0,0-.785-1.976A3.041,3.041,0,0,0,4.013-18.928ZM3.8-10.393a.8.8,0,0,0-.6.238.752.752,0,0,0-.238.589.8.8,0,0,0,.238.6.859.859,0,0,0,.6.238.859.859,0,0,0,.6-.238.773.773,0,0,0,.252-.6.8.8,0,0,0-.238-.589A.834.834,0,0,0,3.8-10.393Z" transform="matrix(0.966, 0.259, -0.259, 0.966, 806.772, 286.56)"/><path class="g" d="M3.563-18.928a3.007,3.007,0,0,0-2.2.792,2.873,2.873,0,0,0-.817,2.188H1.979a2.054,2.054,0,0,1,.314-1.232A1.312,1.312,0,0,1,3.475-17.7a1.363,1.363,0,0,1,1.006.352,1.374,1.374,0,0,1,.352.981,1.392,1.392,0,0,1-.339.893l-.151.176a6.834,6.834,0,0,0-1.471,1.6,2.662,2.662,0,0,0-.251,1.232v.176H4.066v-.176a1.777,1.777,0,0,1,.189-.817,1.948,1.948,0,0,1,.5-.629c.6-.528.968-.867,1.081-.993A2.512,2.512,0,0,0,6.3-16.451a2.281,2.281,0,0,0-.754-1.81A2.857,2.857,0,0,0,3.563-18.928Zm-.226,7.254a.969.969,0,0,0-.691.264.882.882,0,0,0-.277.679.882.882,0,0,0,.277.679.979.979,0,0,0,.691.277.969.969,0,0,0,.691-.264.92.92,0,0,0,.289-.691.929.929,0,0,0-.277-.679A1,1,0,0,0,3.337-11.674Z" transform="matrix(0.875, -0.485, 0.485, 0.875, 748.006, 303.713)"/></g></svg>