<svg xmlns="http://www.w3.org/2000/svg" xmlns:xlink="http://www.w3.org/1999/xlink" width="143" height="122.243" viewBox="0 0 143 122.243"><defs><style>.a{fill:#f7f7f7;opacity:0.602;}.a,.e,.p,.q{fill-rule:evenodd;}.b{fill:url(#a);}.c{fill:url(#b);}.d{fill:url(#c);}.e{fill:#f4f4f4;}.f{fill:#e0e0e0;}.g{fill:url(#d);}.h{fill:none;stroke:#eaeaea;stroke-dasharray:4;}.i{fill:url(#e);}.j{fill:url(#f);}.k{fill:#d6d6d6;}.l{fill:#fff;}.m{fill:url(#g);}.n{fill:#d8d8d8;}.o{fill:#c7c7c7;}.p{fill:#a8a8a8;}.q{fill:#bcbcbc;}</style><linearGradient id="a" x1="0.925" y1="0.988" x2="0.408" y2="1" gradientUnits="objectBoundingBox"><stop offset="0" stop-color="#f0f0f0" stop-opacity="0"/><stop offset="1" stop-color="#f2f2f2"/></linearGradient><linearGradient id="b" x1="0.925" y1="0.988" x2="0.408" y2="1" gradientUnits="objectBoundingBox"><stop offset="0" stop-color="#f7f7f7" stop-opacity="0"/><stop offset="1" stop-color="#ededed"/></linearGradient><linearGradient id="c" x1="0.92" y1="0.988" x2="0.409" y2="1" gradientUnits="objectBoundingBox"><stop offset="0" stop-color="#ededed" stop-opacity="0"/><stop offset="1" stop-color="#efefef"/></linearGradient><linearGradient id="d" x1="1.446" y1="0.67" x2="0.295" y2="0.674" gradientUnits="objectBoundingBox"><stop offset="0" stop-color="#f0f0f0" stop-opacity="0"/><stop offset="1" stop-color="#f0f0f0"/></linearGradient><linearGradient id="e" x1="0.5" x2="0.959" y2="1.29" gradientUnits="objectBoundingBox"><stop offset="0" stop-color="#e8e8e8"/><stop offset="1" stop-color="#f7f7f7"/></linearGradient><linearGradient id="f" x1="0.628" y1="-0.075" x2="0.628" y2="1" gradientUnits="objectBoundingBox"><stop offset="0" stop-color="#bababa"/><stop offset="1" stop-color="#dedede"/><stop offset="1" stop-color="#e7eaf0"/></linearGradient><linearGradient id="g" x1="0.317" y1="0.579" x2="0.856" y2="0.255" gradientUnits="objectBoundingBox"><stop offset="0" stop-color="#eaeaea"/><stop offset="1" stop-color="#c4c4c4"/></linearGradient></defs><g transform="translate(-116 -180.836)"><path class="a" d="M116.675,66a59.46,59.46,0,0,1,35.763,11.855h-3.995a3.424,3.424,0,0,0-3.424,3.425h0v.263a3.424,3.424,0,0,0,3.424,3.425h11.9a58.572,58.572,0,0,1,6.123,7.841h5.648A3.688,3.688,0,0,1,175.8,96.5V96.7a3.69,3.69,0,0,1-2.667,3.545h-5.2a4.214,4.214,0,0,0-4.214,4.215h0v1.317A4.214,4.214,0,0,0,167.932,110h17.882A4.217,4.217,0,0,1,189,114.086v.235a4.214,4.214,0,0,1-4.214,4.215h-9.265q.276,2.807.278,5.687c0,32.156-26.471,58.224-59.125,58.224a59.076,59.076,0,0,1-56.107-39.809H58.349a1.625,1.625,0,0,1-.6-3.134h2.737a3.424,3.424,0,0,0,3.424-3.425h0v-.263a3.424,3.424,0,0,0-3.424-3.425H58.127l-.006-.042H52.282a2.708,2.708,0,0,1,0-5.416h5.331q-.063-1.347-.063-2.708a57.266,57.266,0,0,1,5.288-24.1H53.374A7.375,7.375,0,0,1,46,92.745v-.412a7.376,7.376,0,0,1,6.949-7.365H86.293a2.635,2.635,0,0,0,0-5.269H78.574l.193-.16H74.929a5,5,0,0,1-5-5.006v-.279a5,5,0,0,1,5-5.006H97.151A59.861,59.861,0,0,1,116.675,66Z" transform="translate(70 114.836)"/><g transform="translate(136.023 255.657)"><path class="b" d="M15.289,11.43q.046.185.116.393l.093.369a1.3,1.3,0,0,1,.046.3,1.946,1.946,0,0,1-.347,1.143,2.032,2.032,0,0,1-.9.727,3.99,3.99,0,0,1-.439.023,3.388,3.388,0,0,1-.416.023H13l-3.608.046v3.856q0,.854.035,1.72t.081,1.559q.046.831.116,1.593H6.292l.069-.9q.023-.531.046-1.443T6.43,18.4V14.871a1.3,1.3,0,0,1-.879.346,1.24,1.24,0,0,1-.682-.185,1.436,1.436,0,0,1-.474-.508l-2.614-.139a2.381,2.381,0,0,1-1.272-.774A2.067,2.067,0,0,1,0,12.215a1.3,1.3,0,0,1,.023-.254,1.315,1.315,0,0,1,.069-.231l.578-1.339A2.379,2.379,0,0,1,.96,9.444a2.81,2.81,0,0,1,.613-.762L5.2,1.963h.023A5.63,5.63,0,0,1,6.268.577,2.146,2.146,0,0,1,7.818,0,2.632,2.632,0,0,1,9.31.439a2.7,2.7,0,0,1,.983,1.155l2.914,5.7a2.685,2.685,0,0,1,1.3.97,2.621,2.621,0,0,1,.509,1.593,2.933,2.933,0,0,1-.116.785Z" transform="translate(0)"/><path class="c" d="M325.289,11.43q.046.185.116.393l.092.369a1.3,1.3,0,0,1,.046.3,1.946,1.946,0,0,1-.347,1.143,2.032,2.032,0,0,1-.9.727,3.99,3.99,0,0,1-.439.023,3.388,3.388,0,0,1-.416.023H323l-3.608.046v3.856q0,.854.035,1.72t.081,1.559q.046.831.116,1.593h-3.331l.069-.9q.023-.531.046-1.443t.023-2.436V14.871a1.3,1.3,0,0,1-.879.346,1.24,1.24,0,0,1-.682-.185,1.436,1.436,0,0,1-.474-.508l-2.614-.139a2.381,2.381,0,0,1-1.272-.774,2.067,2.067,0,0,1-.509-1.4,1.294,1.294,0,0,1,.023-.254,1.313,1.313,0,0,1,.069-.231l.578-1.339a2.379,2.379,0,0,1,.289-.947,2.81,2.81,0,0,1,.613-.762l3.632-6.72h.023A5.63,5.63,0,0,1,316.268.577,2.145,2.145,0,0,1,317.818,0a2.632,2.632,0,0,1,1.492.439,2.7,2.7,0,0,1,.983,1.155l2.914,5.7a2.686,2.686,0,0,1,1.3.97,2.621,2.621,0,0,1,.509,1.593,2.933,2.933,0,0,1-.116.785Z" transform="translate(-228.329)"/><path class="d" d="M297.921,27.962q.036.145.09.308l.072.29a1.021,1.021,0,0,1,.036.235,1.532,1.532,0,0,1-.271.9,1.586,1.586,0,0,1-.7.57,3.094,3.094,0,0,1-.343.018,2.626,2.626,0,0,1-.325.018h-.343l-2.813.036v3.024q0,.67.027,1.349t.063,1.222q.036.652.09,1.249h-2.6l.054-.706q.018-.416.036-1.132t.018-1.91V30.66a1.008,1.008,0,0,1-.685.272.963.963,0,0,1-.532-.145,1.123,1.123,0,0,1-.37-.4l-2.038-.109a1.855,1.855,0,0,1-.992-.607,1.626,1.626,0,0,1-.4-1.1,1.024,1.024,0,0,1,.018-.2,1.035,1.035,0,0,1,.054-.181l.451-1.05a1.872,1.872,0,0,1,.225-.742,2.2,2.2,0,0,1,.478-.6l2.831-5.269h.018a4.412,4.412,0,0,1,.812-1.086A1.667,1.667,0,0,1,292.1,19a2.044,2.044,0,0,1,1.163.344,2.112,2.112,0,0,1,.766.905l2.272,4.472a2.1,2.1,0,0,1,1.01.76,2.063,2.063,0,0,1,.4,1.249,2.312,2.312,0,0,1-.09.616Z" transform="translate(-210.652 -13.994)"/></g><path class="e" d="M128.693,415c16.163,0,30.718,1.319,40.891,3.426,9.95.066,17.962,3.048,17.962,6.717,0,2.908-5.032,5.384-12.074,6.319-1.681.5-3.572.966-5.65,1.4a4.39,4.39,0,0,1,.081.841c0,6.4-13.912,11.592-31.072,11.592-15.439,0-28.249-4.2-30.663-9.706C87.567,434.026,73,430.174,73,425.67,73,419.777,97.935,415,128.693,415Z" transform="translate(50.113 -142.219)"/><ellipse class="f" cx="21.472" cy="1.712" rx="21.472" ry="1.712" transform="translate(161.289 284.056)"/><path class="g" d="M397.961,142.2a3.078,3.078,0,0,1-3.315,2.816H384.392c-1.85-.125-3.392-1.314-3.392-2.941a2.873,2.873,0,0,1,1.7-2.5,1.541,1.541,0,0,1-.154-.563,2.182,2.182,0,0,1,2.313-2,2.526,2.526,0,0,1,1.388.438,5.458,5.458,0,0,1,4.626-2.44c2.775,0,5.011,1.94,5.011,4.317v.25A2.88,2.88,0,0,1,397.961,142.2Z" transform="translate(-176.782 64.014)"/><path class="h" d="M238,188.818q15.081-2.675,22.328,3.4l.1.083.2.166.194.166.193.167.192.168.1.084.192.17.289.258.194.175.2.178.3.274.3.283.313.294.214.2.33.314,1.913,1.841.242.231.3.288.216.2.208.193.2.184.131.119.194.174a18.169,18.169,0,0,0,5.226,3.47,20.106,20.106,0,0,0,7.544,1.38l.15,0a28.86,28.86,0,0,1,13.288,3.427c.577.313,1.127.64,1.645.976l.171.112.169.113q.21.141.411.284l.16.114.157.115.155.115q.153.115.3.23l.146.115q.362.289.686.577l.128.115q.253.23.479.457l.111.113a6.233,6.233,0,0,1,1.4,2l.017.047-.13.046a5.354,5.354,0,0,0-1.089-1.672l-.1-.11q-.127-.138-.264-.277l-.112-.112q-.255-.252-.544-.508l-.13-.114q-.361-.313-.768-.627l-.149-.114-.152-.114-.155-.114-.157-.113-.241-.169-.164-.112-.166-.112-.169-.111-.171-.111-.173-.11-.176-.11-.178-.109-.18-.108q-.272-.161-.554-.319l-.189-.1-.1-.052a28.717,28.717,0,0,0-13.067-3.408l-.156,0a20.4,20.4,0,0,1-7.745-1.393,18.3,18.3,0,0,1-5.264-3.494l-.129-.116-.2-.178-.2-.185-.138-.128-.214-.2-.147-.139-.23-.218-.637-.61-1.175-1.133-.343-.328-.33-.314-.214-.2-.312-.293-.3-.282-.2-.183-.2-.18-.1-.089-.29-.261-.192-.171-.192-.169-.192-.168-.192-.167-.193-.166-.195-.166-.2-.166q-7.118-5.975-21.915-3.426l-.3.052Z" transform="translate(-71.451 24.977)"/><g transform="translate(168.3 213.081) rotate(152)"><path class="i" d="M6.824,2.614l3.562-1.547,1.733,11.578L0,5.5,3.18,4,10.863,11,4.695,3.285,4.613,0Z" transform="translate(0 0)"/></g><g transform="translate(151.544 218.51)"><path class="j" d="M76.987,72.116H42.747A4.737,4.737,0,0,1,38,67.387V20.729A4.737,4.737,0,0,1,42.747,16h34.24a4.737,4.737,0,0,1,4.747,4.729V67.387A4.737,4.737,0,0,1,76.987,72.116Z" transform="translate(-27.989 -11.785)"/><path class="f" d="M73.423,78.589H40.73A4.738,4.738,0,0,1,36,73.841V27.748A4.738,4.738,0,0,1,40.73,23H73.423a4.738,4.738,0,0,1,4.73,4.748V73.842A4.738,4.738,0,0,1,73.423,78.589Z" transform="translate(-26.516 -16.941)"/><path class="k" d="M87,83.1H55.669A.668.668,0,0,1,55,82.437V37.667A.668.668,0,0,1,55.669,37H87a.668.668,0,0,1,.669.667v44.77A.67.67,0,0,1,87,83.1Z" transform="translate(-40.51 -27.252)"/><path class="l" d="M29.173,82.841c-2.918-.2-18.969-1.416-28.908-9.463A.721.721,0,0,1,.634,72.1c15.425-1.4,13.547-29,13.655-34.3A.755.755,0,0,1,15.031,37H46.177a.72.72,0,0,1,.718.721L45.264,67.368a2.5,2.5,0,0,1-.287.612L33.157,82.264A27.483,27.483,0,0,1,29.173,82.841Z" transform="translate(0 -27.252)"/><path class="m" d="M112.418,157.994A14.161,14.161,0,0,0,124.125,153c-1.086,5.416-8.061,15.213-17.125,15.28,5.208-2.686,5.009-7.659,4.844-9.889C111.825,158.13,112.158,157.977,112.418,157.994Z" transform="translate(-78.81 -112.691)"/><g transform="translate(16.025 16.504)"><rect class="n" width="20.838" height="2.084" rx="1.042" transform="translate(5.712 0)"/><rect class="n" width="20.838" height="2.084" rx="1.042" transform="translate(4.67 5.209)"/><rect class="n" width="10.419" height="2.084" rx="1.042" transform="translate(4.67 10.419)"/><rect class="n" width="2.084" height="2.084" rx="1.042" transform="translate(16.131 10.419)"/><rect class="n" width="21.076" height="1.581" rx="0.79" transform="translate(3.504 15.534) rotate(2)"/><rect class="n" width="21.076" height="1.581" rx="0.79" transform="translate(1.97 20.437) rotate(4)"/><rect class="n" width="10.538" height="1.581" rx="0.79" transform="translate(0.193 25.61) rotate(7)"/><rect class="n" width="1.581" height="1.581" rx="0.79" transform="translate(12.221 27.087) rotate(7)"/></g><g transform="translate(24.434)"><rect class="o" width="13.545" height="5.209" transform="translate(0 6.085)"/><path class="p" d="M1.054,16h13.7L13.7,17.844H0Z" transform="translate(0 -11.785)"/><path class="q" d="M21.371,0A2.371,2.371,0,1,1,19,2.371,2.371,2.371,0,0,1,21.371,0Zm0,1.054a1.317,1.317,0,1,0,1.317,1.317A1.317,1.317,0,0,0,21.371,1.054Z" transform="translate(-14.19)"/></g></g></g></svg>